<svg xmlns="http://www.w3.org/2000/svg" viewBox="0 0 800 1000" width="800" height="1000">
  <defs>
    <radialGradient id="bg" cx="50%" cy="40%" r="80%">
      <stop offset="0%" stop-color="#191919"/>
      <stop offset="60%" stop-color="#0d0d0d"/>
      <stop offset="100%" stop-color="#050505"/>
    </radialGradient>
    <linearGradient id="hi" x1="0" y1="0" x2="0" y2="1">
      <stop offset="0%" stop-color="#262626"/>
      <stop offset="100%" stop-color="#0e0e0e"/>
    </linearGradient>
    <filter id="grain">
      <feTurbulence type="fractalNoise" baseFrequency="0.9" numOctaves="2" stitchTiles="stitch"/>
      <feColorMatrix values="0 0 0 0 0  0 0 0 0 0  0 0 0 0 0  0 0 0 0.18 0"/>
    </filter>
    <pattern id="rib" width="14" height="14" patternUnits="userSpaceOnUse">
      <line x1="0" y1="0" x2="0" y2="14" stroke="#000" stroke-width="1" opacity="0.5"/>
    </pattern>
  </defs>
  <rect width="800" height="1000" fill="url(#bg)"/>
  <rect width="800" height="1000" filter="url(#grain)" opacity="0.6"/>

  <!-- Beanie -->
  <g transform="translate(400, 530)">
    <ellipse cx="0" cy="200" rx="240" ry="22" fill="#000" opacity="0.55"/>
    <!-- main body -->
    <path d="M -200 -120 C -210 -260, 210 -260, 200 -120 L 200 100 L -200 100 Z" fill="url(#hi)" stroke="#262626" stroke-width="2"/>
    <!-- cuff -->
    <rect x="-205" y="100" width="410" height="90" fill="#0a0a0a" stroke="#222" stroke-width="2"/>
    <rect x="-205" y="100" width="410" height="90" fill="url(#rib)"/>
    <!-- top fold lines -->
    <path d="M -200 -120 C -150 -120, 150 -120, 200 -120" stroke="#000" stroke-width="2" fill="none" opacity="0.55"/>
    <!-- woven label -->
    <rect x="-30" y="120" width="60" height="50" fill="#e62020" opacity="0.9"/>
    <line x1="-30" y1="135" x2="30" y2="135" stroke="#0a0a0a" stroke-width="1"/>
    <line x1="-30" y1="155" x2="30" y2="155" stroke="#0a0a0a" stroke-width="1"/>
  </g>

  <g font-family="Bebas Neue, Impact, sans-serif" fill="#f0ede8">
    <text x="40" y="60" font-size="22" letter-spacing="6" opacity="0.55">LOCKED / ANGLE</text>
    <text x="40" y="970" font-size="20" letter-spacing="6" opacity="0.45">— HEADWEAR / BEANIE</text>
  </g>
  <line x1="40" y1="78" x2="120" y2="78" stroke="#e62020" stroke-width="2"/>
  <rect x="740" y="930" width="20" height="20" fill="#e62020"/>
</svg>
