<svg xmlns="http://www.w3.org/2000/svg" viewBox="0 0 800 1000" width="800" height="1000">
  <defs>
    <radialGradient id="bg" cx="50%" cy="40%" r="80%">
      <stop offset="0%" stop-color="#191919"/>
      <stop offset="60%" stop-color="#0d0d0d"/>
      <stop offset="100%" stop-color="#050505"/>
    </radialGradient>
    <linearGradient id="hi" x1="0" y1="0" x2="0" y2="1">
      <stop offset="0%" stop-color="#262626"/>
      <stop offset="100%" stop-color="#0e0e0e"/>
    </linearGradient>
    <filter id="grain">
      <feTurbulence type="fractalNoise" baseFrequency="0.9" numOctaves="2" stitchTiles="stitch"/>
      <feColorMatrix values="0 0 0 0 0  0 0 0 0 0  0 0 0 0 0  0 0 0 0.18 0"/>
    </filter>
  </defs>
  <rect width="800" height="1000" fill="url(#bg)"/>
  <rect width="800" height="1000" filter="url(#grain)" opacity="0.6"/>

  <!-- Snapback -->
  <g transform="translate(400, 540)">
    <ellipse cx="0" cy="160" rx="280" ry="22" fill="#000" opacity="0.6"/>
    <!-- flat brim -->
    <rect x="-280" y="60" width="560" height="40" rx="4" fill="#0a0a0a" stroke="#222" stroke-width="2"/>
    <!-- crown -->
    <path d="M -200 60 C -210 -110, 210 -110, 200 60 Z" fill="url(#hi)" stroke="#262626" stroke-width="2"/>
    <!-- panel seams -->
    <line x1="0" y1="-80" x2="0" y2="60" stroke="#000" stroke-width="2" opacity="0.4"/>
    <line x1="-100" y1="-50" x2="-130" y2="60" stroke="#000" stroke-width="2" opacity="0.35"/>
    <line x1="100" y1="-50" x2="130" y2="60" stroke="#000" stroke-width="2" opacity="0.35"/>
    <!-- button -->
    <circle cx="0" cy="-90" r="6" fill="#0a0a0a" stroke="#222" stroke-width="1"/>
    <!-- stitch line on brim -->
    <line x1="-260" y1="70" x2="260" y2="70" stroke="#222" stroke-dasharray="4 4" stroke-width="1.5"/>
    <line x1="-260" y1="90" x2="260" y2="90" stroke="#222" stroke-dasharray="4 4" stroke-width="1.5"/>
    <!-- accent rectangle (rubber tab) -->
    <rect x="180" y="20" width="14" height="14" fill="#e62020"/>
  </g>

  <g font-family="Bebas Neue, Impact, sans-serif" fill="#f0ede8">
    <text x="40" y="60" font-size="22" letter-spacing="6" opacity="0.55">LOCKED / ANGLE</text>
    <text x="40" y="970" font-size="20" letter-spacing="6" opacity="0.45">— HEADWEAR / SNAPBACK</text>
  </g>
  <line x1="40" y1="78" x2="120" y2="78" stroke="#e62020" stroke-width="2"/>
  <rect x="740" y="930" width="20" height="20" fill="#e62020"/>
</svg>
