<svg xmlns="http://www.w3.org/2000/svg" viewBox="0 0 800 1000" width="800" height="1000">
  <defs>
    <radialGradient id="bg" cx="50%" cy="40%" r="80%">
      <stop offset="0%" stop-color="#191919"/>
      <stop offset="60%" stop-color="#0d0d0d"/>
      <stop offset="100%" stop-color="#050505"/>
    </radialGradient>
    <linearGradient id="hi" x1="0" y1="0" x2="1" y2="0">
      <stop offset="0%" stop-color="#262626"/>
      <stop offset="40%" stop-color="#1a1a1a"/>
      <stop offset="100%" stop-color="#0e0e0e"/>
    </linearGradient>
    <filter id="grain">
      <feTurbulence type="fractalNoise" baseFrequency="0.9" numOctaves="2" stitchTiles="stitch"/>
      <feColorMatrix values="0 0 0 0 0  0 0 0 0 0  0 0 0 0 0  0 0 0 0.18 0"/>
    </filter>
  </defs>
  <rect width="800" height="1000" fill="url(#bg)"/>
  <rect width="800" height="1000" filter="url(#grain)" opacity="0.6"/>

  <!-- Crewneck -->
  <g transform="translate(400, 510)">
    <ellipse cx="0" cy="370" rx="240" ry="22" fill="#000" opacity="0.6"/>
    <!-- body -->
    <path d="M -200 -240 L -280 -200 L -320 -60 L -280 -30 L -250 -60 L -240 -60 L -240 300 L 240 300 L 240 -60 L 250 -60 L 280 -30 L 320 -60 L 280 -200 L 200 -240 L 110 -250 C 80 -210, -80 -210, -110 -250 Z"
          fill="url(#hi)" stroke="#262626" stroke-width="2"/>
    <!-- ribbed collar -->
    <path d="M -110 -250 C -80 -210, 80 -210, 110 -250 L 95 -242 C 60 -206, -60 -206, -95 -242 Z" fill="#0c0c0c" stroke="#222" stroke-width="2"/>
    <line x1="-95" y1="-225" x2="95" y2="-225" stroke="#000" stroke-width="1.5" opacity="0.7"/>
    <!-- ribbed cuffs -->
    <rect x="-320" y="-72" width="40" height="20" fill="#0a0a0a"/>
    <rect x="280" y="-72" width="40" height="20" fill="#0a0a0a"/>
    <!-- ribbed hem -->
    <rect x="-240" y="290" width="480" height="14" fill="#0a0a0a"/>
    <!-- center subtle tonal -->
    <line x1="0" y1="-210" x2="0" y2="290" stroke="#000" stroke-width="2" opacity="0.4"/>
    <!-- batch tag -->
    <rect x="180" y="240" width="44" height="22" fill="#e62020"/>
  </g>

  <g font-family="Bebas Neue, Impact, sans-serif" fill="#f0ede8">
    <text x="40" y="60" font-size="22" letter-spacing="6" opacity="0.55">LOCKED / ANGLE</text>
    <text x="40" y="970" font-size="20" letter-spacing="6" opacity="0.45">— CREWNECK / HEAVYWEIGHT</text>
  </g>
  <line x1="40" y1="78" x2="120" y2="78" stroke="#e62020" stroke-width="2"/>
  <rect x="740" y="930" width="20" height="20" fill="#e62020"/>
</svg>
