<svg xmlns="http://www.w3.org/2000/svg" viewBox="0 0 800 1000" width="800" height="1000">
  <defs>
    <radialGradient id="bg" cx="50%" cy="40%" r="80%">
      <stop offset="0%" stop-color="#191919"/>
      <stop offset="60%" stop-color="#0d0d0d"/>
      <stop offset="100%" stop-color="#050505"/>
    </radialGradient>
    <linearGradient id="hi" x1="0" y1="0" x2="1" y2="0">
      <stop offset="0%" stop-color="#262626"/>
      <stop offset="40%" stop-color="#1a1a1a"/>
      <stop offset="100%" stop-color="#0e0e0e"/>
    </linearGradient>
    <filter id="grain">
      <feTurbulence type="fractalNoise" baseFrequency="0.9" numOctaves="2" stitchTiles="stitch"/>
      <feColorMatrix values="0 0 0 0 0  0 0 0 0 0  0 0 0 0 0  0 0 0 0.18 0"/>
    </filter>
  </defs>
  <rect width="800" height="1000" fill="url(#bg)"/>
  <rect width="800" height="1000" filter="url(#grain)" opacity="0.6"/>

  <!-- Hoodie silhouette -->
  <g transform="translate(400, 510)">
    <ellipse cx="0" cy="370" rx="240" ry="22" fill="#000" opacity="0.6"/>
    <!-- hood -->
    <path d="M -130 -260 C -120 -310, 120 -310, 130 -260 L 110 -240 C 80 -270, -80 -270, -110 -240 Z" fill="#161616" stroke="#222" stroke-width="2"/>
    <!-- body -->
    <path d="M -200 -240 L -270 -200 L -310 -80 L -270 -50 L -240 -80 L -240 300 L 240 300 L 240 -80 L 270 -50 L 310 -80 L 270 -200 L 200 -240 L 130 -260 L 110 -240 L 90 -210 C 60 -180, -60 -180, -90 -210 L -110 -240 L -130 -260 Z"
          fill="url(#hi)" stroke="#262626" stroke-width="2"/>
    <!-- kangaroo pocket -->
    <path d="M -140 60 L -160 220 L 160 220 L 140 60 Z" fill="none" stroke="#000" stroke-width="2" opacity="0.55"/>
    <line x1="0" y1="60" x2="0" y2="220" stroke="#000" stroke-width="2" opacity="0.35"/>
    <!-- drawcords -->
    <path d="M -28 -190 C -28 -150, -10 -120, -5 -100 L 0 -90 L 5 -100 C 10 -120, 28 -150, 28 -190" fill="none" stroke="#0a0a0a" stroke-width="3"/>
    <circle cx="-5" cy="-90" r="4" fill="#0a0a0a"/>
    <circle cx="5" cy="-90" r="4" fill="#0a0a0a"/>
    <!-- center seam -->
    <line x1="0" y1="-200" x2="0" y2="40" stroke="#000" stroke-width="2" opacity="0.4"/>
    <!-- cuffs/hem -->
    <line x1="-240" y1="290" x2="240" y2="290" stroke="#000" stroke-width="2" opacity="0.55"/>
  </g>

  <g font-family="Bebas Neue, Impact, sans-serif" fill="#f0ede8">
    <text x="40" y="60" font-size="22" letter-spacing="6" opacity="0.55">LOCKED / ANGLE</text>
    <text x="40" y="970" font-size="20" letter-spacing="6" opacity="0.45">— HOODIE / 500GSM</text>
  </g>
  <line x1="40" y1="78" x2="120" y2="78" stroke="#e62020" stroke-width="2"/>
  <rect x="740" y="930" width="20" height="20" fill="#e62020"/>
</svg>
