<svg xmlns="http://www.w3.org/2000/svg" viewBox="0 0 800 1000" width="800" height="1000">
  <defs>
    <radialGradient id="bg" cx="50%" cy="40%" r="80%">
      <stop offset="0%" stop-color="#191919"/>
      <stop offset="60%" stop-color="#0d0d0d"/>
      <stop offset="100%" stop-color="#050505"/>
    </radialGradient>
    <linearGradient id="hi" x1="0" y1="0" x2="1" y2="0">
      <stop offset="0%" stop-color="#262626"/>
      <stop offset="40%" stop-color="#1a1a1a"/>
      <stop offset="100%" stop-color="#0e0e0e"/>
    </linearGradient>
    <filter id="grain">
      <feTurbulence type="fractalNoise" baseFrequency="0.9" numOctaves="2" stitchTiles="stitch"/>
      <feColorMatrix values="0 0 0 0 0  0 0 0 0 0  0 0 0 0 0  0 0 0 0.18 0"/>
    </filter>
  </defs>
  <rect width="800" height="1000" fill="url(#bg)"/>
  <rect width="800" height="1000" filter="url(#grain)" opacity="0.6"/>

  <!-- Long Sleeve Tee -->
  <g transform="translate(400, 510)">
    <ellipse cx="0" cy="370" rx="240" ry="22" fill="#000" opacity="0.6"/>
    <!-- body with sleeves wider -->
    <path d="M -180 -240 L -260 -210 L -320 50 L -260 80 L -230 60 L -210 60 L -210 300 L 210 300 L 210 60 L 230 60 L 260 80 L 320 50 L 260 -210 L 180 -240 L 110 -260 C 80 -220, -80 -220, -110 -260 Z"
          fill="url(#hi)" stroke="#262626" stroke-width="2"/>
    <!-- collar -->
    <path d="M -110 -260 C -80 -220, 80 -220, 110 -260 L 90 -252 C 60 -212, -60 -212, -90 -252 Z" fill="#0a0a0a" stroke="#202020" stroke-width="1.5"/>
    <!-- cuffs -->
    <rect x="-330" y="40" width="80" height="40" fill="#0a0a0a"/>
    <rect x="250" y="40" width="80" height="40" fill="#0a0a0a"/>
    <!-- sleeve seam text accent -->
    <line x1="-275" y1="-160" x2="-310" y2="40" stroke="#e62020" stroke-width="3" opacity="0.7"/>
    <line x1="275" y1="-160" x2="310" y2="40" stroke="#e62020" stroke-width="3" opacity="0.7"/>
    <!-- center fold -->
    <line x1="0" y1="-220" x2="0" y2="290" stroke="#000" stroke-width="2" opacity="0.45"/>
  </g>

  <g font-family="Bebas Neue, Impact, sans-serif" fill="#f0ede8">
    <text x="40" y="60" font-size="22" letter-spacing="6" opacity="0.55">LOCKED / ANGLE</text>
    <text x="40" y="970" font-size="20" letter-spacing="6" opacity="0.45">— LONG SLEEVE / HEAVY COTTON</text>
  </g>
  <line x1="40" y1="78" x2="120" y2="78" stroke="#e62020" stroke-width="2"/>
  <rect x="740" y="930" width="20" height="20" fill="#e62020"/>
</svg>
