<svg xmlns="http://www.w3.org/2000/svg" viewBox="0 0 800 1000" width="800" height="1000">
  <defs>
    <radialGradient id="bg" cx="50%" cy="40%" r="80%">
      <stop offset="0%" stop-color="#191919"/>
      <stop offset="60%" stop-color="#0d0d0d"/>
      <stop offset="100%" stop-color="#050505"/>
    </radialGradient>
    <linearGradient id="shadow" x1="0" y1="0" x2="0" y2="1">
      <stop offset="0%" stop-color="#1c1c1c"/>
      <stop offset="100%" stop-color="#0c0c0c"/>
    </linearGradient>
    <linearGradient id="hi" x1="0" y1="0" x2="1" y2="0">
      <stop offset="0%" stop-color="#262626"/>
      <stop offset="40%" stop-color="#1a1a1a"/>
      <stop offset="100%" stop-color="#0e0e0e"/>
    </linearGradient>
    <filter id="grain">
      <feTurbulence type="fractalNoise" baseFrequency="0.9" numOctaves="2" stitchTiles="stitch"/>
      <feColorMatrix values="0 0 0 0 0  0 0 0 0 0  0 0 0 0 0  0 0 0 0.18 0"/>
      <feComposite in2="SourceGraphic" operator="in"/>
    </filter>
  </defs>
  <rect width="800" height="1000" fill="url(#bg)"/>
  <rect width="800" height="1000" filter="url(#grain)" opacity="0.6"/>

  <!-- T-Shirt silhouette -->
  <g transform="translate(400, 510)">
    <!-- shadow on floor -->
    <ellipse cx="0" cy="350" rx="220" ry="22" fill="#000" opacity="0.6"/>
    <!-- body -->
    <path d="M -180 -240 L -240 -200 L -280 -100 L -240 -70 L -210 -100 L -210 280 L 210 280 L 210 -100 L 240 -70 L 280 -100 L 240 -200 L 180 -240 L 110 -260 C 80 -220, -80 -220, -110 -260 Z"
          fill="url(#hi)" stroke="#262626" stroke-width="2"/>
    <!-- collar -->
    <path d="M -110 -260 C -80 -220, 80 -220, 110 -260 L 90 -252 C 60 -212, -60 -212, -90 -252 Z" fill="#0a0a0a" stroke="#202020" stroke-width="1.5"/>
    <!-- subtle vertical center fold -->
    <line x1="0" y1="-220" x2="0" y2="270" stroke="#000" stroke-width="2" opacity="0.5"/>
    <!-- sleeve shadows -->
    <path d="M -240 -200 L -270 -100 L -230 -80" fill="none" stroke="#000" stroke-width="2" opacity="0.5"/>
    <path d="M 240 -200 L 270 -100 L 230 -80" fill="none" stroke="#000" stroke-width="2" opacity="0.5"/>
    <!-- hem -->
    <line x1="-210" y1="270" x2="210" y2="270" stroke="#000" stroke-width="2" opacity="0.55"/>
  </g>

  <!-- corner labels -->
  <g font-family="Bebas Neue, Impact, sans-serif" fill="#f0ede8">
    <text x="40" y="60" font-size="22" letter-spacing="6" opacity="0.55">LOCKED / ANGLE</text>
    <text x="40" y="970" font-size="20" letter-spacing="6" opacity="0.45">— TEE / 280GSM</text>
  </g>
  <line x1="40" y1="78" x2="120" y2="78" stroke="#e62020" stroke-width="2"/>
  <rect x="740" y="930" width="20" height="20" fill="#e62020"/>
</svg>
